<?xml version="1.0" encoding="iso-8859-1"?>
<!-- Generator: Adobe Illustrator 19.0.0, SVG Export Plug-In . SVG Version: 6.00 Build 0)  -->
<svg version="1.1" id="Layer_1" xmlns="http://www.w3.org/2000/svg" xmlns:xlink="http://www.w3.org/1999/xlink" x="0px" y="0px"
	 viewBox="0 0 512 512" style="enable-background:new 0 0 512 512;" xml:space="preserve">
<g>
	<g>
		<path d="M491.195,137.141c-5.274-6.375-11.404-11.499-18.334-15.381V21.575h-70.884v100.079
			c-4.841,2.957-9.664,6.589-14.437,10.896c-14.38,12.978-25.14,29.276-29.983,39.288c-6.642,13.73-24.127,33.236-30.3,39.589
			l-0.302,0.32c-47.896,52.083-124.114,67.544-179.619,71.343c-61.668,4.222-112.341-4.615-112.837-4.702l-13.048-2.336L0,336.464
			l3.957,6.386c9.55,15.41,24.106,29.045,43.264,40.53c7.846,4.703,16.122,9.006,24.745,12.936l-3.278,53.433l5.567,5.044
			c13.436,12.172,31.192,21.257,52.777,27.002c21.534,5.733,44.741,8.632,69.048,8.632c1.494,0,2.994-0.01,4.497-0.032
			c73.26-1.07,144.699-25.715,201.155-69.393c28.993-22.43,52.949-49.03,71.197-79.058c19.327-31.799,31.749-66.677,36.921-103.665
			C513.361,213.169,515.607,166.644,491.195,137.141z M433.242,52.838h8.358v59.318h-8.358V52.838z M63.299,356.561
			c-12.175-7.291-21.778-15.433-28.644-24.265l7.521-21.182c19.797,2.557,59.808,6.347,106.56,3.216
			c38.696-2.592,73.992-9.431,104.909-20.328c39.335-13.864,71.693-34.366,96.182-60.94c0.502-0.52,1.943-2.022,3.995-4.259
			c-0.028,0.059-0.056,0.12-0.084,0.18c-0.2,0.425-0.398,0.843-0.594,1.253c-0.04,0.083-0.08,0.169-0.12,0.251
			c-0.737,1.541-1.437,2.971-2.081,4.259c-0.017,0.033-0.033,0.067-0.05,0.1c-0.195,0.389-0.383,0.765-0.567,1.127
			c-0.025,0.05-0.05,0.099-0.075,0.149c-0.177,0.349-0.348,0.684-0.514,1.005c-0.021,0.041-0.042,0.082-0.063,0.122
			c-0.37,0.717-0.71,1.363-1.01,1.926l-0.199,0.387c-0.744,1.489-1.51,2.962-2.294,4.422c-0.258,0.481-0.532,0.952-0.795,1.432
			c-0.534,0.97-1.064,1.943-1.615,2.899c-0.333,0.578-0.682,1.145-1.02,1.718c-0.499,0.844-0.992,1.691-1.505,2.525
			c-0.375,0.611-0.765,1.209-1.146,1.813c-0.494,0.783-0.984,1.57-1.489,2.344c-0.404,0.619-0.824,1.228-1.236,1.84
			c-0.501,0.746-0.997,1.495-1.508,2.232c-0.429,0.619-0.872,1.227-1.309,1.839c-0.511,0.717-1.017,1.438-1.538,2.148
			c-0.452,0.617-0.918,1.222-1.378,1.832c-0.521,0.692-1.039,1.387-1.569,2.071c-0.473,0.611-0.959,1.211-1.439,1.815
			c-0.532,0.67-1.063,1.343-1.604,2.005c-0.493,0.602-0.996,1.195-1.496,1.792c-0.545,0.65-1.086,1.303-1.639,1.945
			c-0.513,0.596-1.036,1.184-1.556,1.774c-0.554,0.628-1.106,1.26-1.667,1.881c-0.53,0.588-1.07,1.166-1.608,1.747
			c-0.566,0.612-1.13,1.226-1.703,1.83c-0.546,0.576-1.102,1.145-1.655,1.715c-0.577,0.596-1.154,1.192-1.737,1.781
			c-0.562,0.566-1.131,1.123-1.699,1.683c-0.589,0.579-1.175,1.16-1.771,1.733c-0.577,0.556-1.161,1.105-1.745,1.655
			c-0.598,0.564-1.195,1.128-1.8,1.685c-0.591,0.545-1.188,1.083-1.785,1.622c-0.609,0.549-1.216,1.098-1.831,1.64
			c-0.605,0.535-1.217,1.064-1.828,1.592c-0.616,0.533-1.232,1.065-1.852,1.591c-0.619,0.525-1.244,1.044-1.868,1.563
			c-0.624,0.518-1.25,1.036-1.879,1.549c-0.63,0.513-1.265,1.02-1.901,1.528c-0.634,0.505-1.267,1.009-1.905,1.508
			c-0.642,0.502-1.288,0.999-1.934,1.494c-0.642,0.492-1.284,0.983-1.93,1.468c-0.652,0.49-1.308,0.977-1.964,1.46
			c-0.648,0.478-1.297,0.955-1.95,1.427c-0.664,0.48-1.331,0.958-1.999,1.432c-0.652,0.464-1.307,0.925-1.963,1.383
			c-0.676,0.471-1.354,0.939-2.033,1.404c-0.656,0.449-1.315,0.897-1.976,1.34c-0.684,0.46-1.37,0.917-2.058,1.37
			c-0.664,0.439-1.33,0.873-1.997,1.306c-0.693,0.449-1.387,0.895-2.083,1.338c-0.667,0.424-1.335,0.846-2.005,1.265
			c-0.701,0.439-1.404,0.875-2.109,1.309c-0.671,0.412-1.343,0.821-2.016,1.228c-0.71,0.428-1.419,0.854-2.131,1.278
			c-0.673,0.4-1.349,0.796-2.025,1.19c-0.716,0.418-1.433,0.835-2.151,1.246c-0.676,0.388-1.355,0.772-2.033,1.156
			c-0.722,0.407-1.444,0.813-2.169,1.215c-0.678,0.376-1.358,0.748-2.037,1.119c-0.729,0.398-1.459,0.795-2.19,1.188
			c-0.675,0.363-1.353,0.721-2.03,1.079c-0.738,0.39-1.475,0.778-2.213,1.162c-0.676,0.351-1.354,0.698-2.031,1.044
			c-0.741,0.379-1.482,0.758-2.224,1.131c-0.677,0.341-1.357,0.676-2.035,1.012c-0.744,0.368-1.488,0.737-2.233,1.099
			c-0.676,0.329-1.354,0.653-2.031,0.977c-0.748,0.36-1.497,0.718-2.247,1.071c-0.674,0.318-1.348,0.63-2.023,0.943
			c-0.753,0.35-1.507,0.701-2.26,1.045c-0.668,0.305-1.335,0.604-2.002,0.905c-0.762,0.343-1.523,0.687-2.284,1.024
			c-0.662,0.293-1.322,0.58-1.984,0.869c-0.763,0.333-1.527,0.668-2.288,0.995c-0.662,0.284-1.322,0.563-1.983,0.842
			c-0.764,0.324-1.529,0.649-2.292,0.967c-0.65,0.271-1.298,0.536-1.949,0.802c-0.771,0.317-1.542,0.636-2.312,0.947
			c-0.646,0.262-1.291,0.517-1.937,0.774c-0.77,0.307-1.541,0.616-2.309,0.918c-0.632,0.248-1.261,0.489-1.89,0.733
			c-0.783,0.303-1.565,0.608-2.346,0.906c-0.609,0.231-1.214,0.456-1.821,0.685c-0.796,0.299-1.593,0.601-2.387,0.895
			c-0.593,0.219-1.183,0.432-1.775,0.648c-0.803,0.294-1.609,0.59-2.409,0.876c-0.563,0.202-1.122,0.398-1.684,0.597
			c-0.825,0.293-1.652,0.588-2.473,0.874c-0.525,0.183-1.047,0.361-1.571,0.541c-0.85,0.293-1.703,0.589-2.549,0.875
			c-0.462,0.156-0.919,0.306-1.38,0.462c-0.904,0.303-1.811,0.609-2.709,0.905c-0.196,0.065-0.389,0.126-0.585,0.19
			c-3.484,1.142-6.923,2.227-10.31,3.259c-0.345,0.105-0.694,0.215-1.038,0.318c-0.807,0.244-1.604,0.479-2.403,0.717
			c-0.504,0.15-1.013,0.304-1.514,0.451c-0.738,0.217-1.465,0.425-2.197,0.637c-0.555,0.16-1.115,0.325-1.667,0.483
			c-0.715,0.204-1.42,0.401-2.129,0.6c-0.556,0.156-1.116,0.317-1.668,0.47c-0.694,0.193-1.379,0.378-2.066,0.567
			c-0.561,0.153-1.125,0.31-1.682,0.46c-0.668,0.18-1.327,0.354-1.988,0.53c-0.564,0.15-1.131,0.302-1.69,0.449
			c-0.649,0.17-1.288,0.335-1.931,0.501c-0.562,0.145-1.128,0.293-1.684,0.435c-0.62,0.158-1.23,0.311-1.843,0.465
			c-0.569,0.144-1.141,0.289-1.705,0.428c-0.6,0.149-1.192,0.293-1.786,0.439c-0.56,0.137-1.121,0.275-1.675,0.409
			c-0.587,0.142-1.165,0.278-1.744,0.417c-0.55,0.13-1.103,0.263-1.647,0.391c-0.571,0.134-1.133,0.264-1.695,0.394
			c-0.536,0.124-1.073,0.249-1.603,0.37c-0.554,0.126-1.099,0.249-1.647,0.372c-0.529,0.119-1.06,0.239-1.582,0.354
			c-0.526,0.117-1.044,0.23-1.563,0.344c-0.527,0.116-1.056,0.231-1.576,0.343c-0.496,0.107-0.984,0.211-1.472,0.315
			c-0.528,0.113-1.057,0.225-1.577,0.335c-0.471,0.099-0.934,0.194-1.397,0.291c-0.519,0.107-1.038,0.215-1.547,0.319
			c-0.449,0.092-0.891,0.18-1.333,0.269c-0.507,0.102-1.013,0.204-1.51,0.302c-0.43,0.085-0.855,0.169-1.278,0.251
			c-0.304,0.059-0.605,0.118-0.906,0.176C96.768,373.734,79.041,365.998,63.299,356.561z M478.888,233.947
			C461.226,360.26,341.381,457.07,200.121,459.134c-23.072,0.336-44.959-2.203-65.047-7.551
			c-13.712-3.649-25.191-8.821-34.23-15.414l1.377-22.449c3.479-0.534,7.583-1.207,12.213-2.036l0.03,0.008l3.639-0.678
			c1.024-0.191,2.064-0.388,3.12-0.59c20.057-3.854,45.737-9.907,73.439-19.231c17.496-5.889,35.799-13.083,54.003-21.851
			c59.078-28.456,101.235-65.851,125.39-111.2c0.779-1.463,1.539-2.934,2.281-4.413c1.61-3.029,17.462-33.252,21.328-55.667
			c0.296-1.718,0.708-3.59,1.226-5.57c5.001-19.14,19.913-48.447,36.677-48.447c0.951,0,1.958,0.028,3.166,0.089l0.005,0.001
			c12.398,0.613,21.681,4.845,28.376,12.938C479.177,171.656,483.58,200.395,478.888,233.947z"/>
	</g>
</g>
<g>
</g>
<g>
</g>
<g>
</g>
<g>
</g>
<g>
</g>
<g>
</g>
<g>
</g>
<g>
</g>
<g>
</g>
<g>
</g>
<g>
</g>
<g>
</g>
<g>
</g>
<g>
</g>
<g>
</g>
</svg>
